<svg
  width="100"
  height="100"
  viewBox="0 0 100 100"
  fill="none"
  xmlns="http://www.w3.org/2000/svg"
>
  <rect width="100" height="100" rx="20" fill="#E5484D" />
  <path
    d="M62 25H38C34.6863 25 32 27.6863 32 31V75C32 78.3137 34.6863 81 38 81H62C65.3137 81 68 78.3137 68 75V31C68 27.6863 65.3137 25 62 25Z"
    stroke="white"
    stroke-width="5"
    stroke-linecap="round"
    stroke-linejoin="round"
  />
  <path
    d="M55.5 25V21.25C55.5 19.4551 54.0449 18 52.25 18H47.75C45.9551 18 44.5 19.4551 44.5 21.25V25"
    stroke="white"
    stroke-width="5"
    stroke-linecap="round"
    stroke-linejoin="round"
  />
  <path
    d="M42 45L49 52L60 41"
    stroke="white"
    stroke-width="5"
    stroke-linecap="round"
    stroke-linejoin="round"
  />
  <path
    d="M42 61V71"
    stroke="white"
    stroke-width="5"
    stroke-linecap="round"
    stroke-linejoin="round"
  />
  <path
    d="M50 66V71"
    stroke="white"
    stroke-width="5"
    stroke-linecap="round"
    stroke-linejoin="round"
  />
  <path
    d="M58 56V71"
    stroke="white"
    stroke-width="5"
    stroke-linecap="round"
    stroke-linejoin="round"
  />
</svg>
